<?xml version="1.0" encoding="utf-8"?>
<!-- Generator: Adobe Illustrator 26.0.1, SVG Export Plug-In . SVG Version: 6.00 Build 0)  -->
<svg version="1.1" id="Layer_1" xmlns="http://www.w3.org/2000/svg" xmlns:xlink="http://www.w3.org/1999/xlink" x="0px" y="0px"
	 viewBox="0 0 360 360" style="enable-background:new 0 0 360 360;" xml:space="preserve">
<style type="text/css">
	.st0{fill:#F6C418;}
	.st1{fill:#FED800;}
	.st2{fill:#8E5A00;}
</style>
<g class="st0">
<path  d="M153.2,72c0-17.9,0-35.8,21-69c2.6-4.1,9.3-4.1,11.9,0c21,33.2,21,51,21,68.9s-9,71.6-26.9,71.6
	S153.2,89.9,153.2,72z"/>
<path d="M84.7,122.6C72,109.9,59.3,97.3,50.7,59c-1.1-4.7,3.7-9.5,8.4-8.4c38.3,8.6,50.9,21.3,63.6,33.9
	s44.3,57,31.6,69.7C141.6,166.9,97.3,135.3,84.7,122.6z"/>
<path d="M72,206.8c-17.9,0-35.8,0-69-21c-4.1-2.6-4.1-9.3,0-11.9c33.2-21,51-21,68.9-21c17.9,0,71.6,9,71.6,26.9
	S89.9,206.8,72,206.8z"/>
<path d="M122.6,275.3C109.9,288,97.3,300.7,59,309.3c-4.7,1.1-9.5-3.7-8.4-8.4c8.6-38.3,21.3-50.9,33.9-63.6
	s57-44.3,69.7-31.6C166.9,218.4,135.3,262.7,122.6,275.3z"/>
<path d="M206.8,288c0,17.9,0,35.8-21,69c-2.6,4.1-9.3,4.1-11.9,0c-21-33.2-21-51-21-68.9c0-17.9,9-71.6,26.9-71.6
	S206.8,270.1,206.8,288z"/>
<path d="M275.3,237.4c12.7,12.7,25.3,25.3,33.9,63.6c1.1,4.7-3.7,9.5-8.4,8.4c-38.3-8.6-50.9-21.3-63.6-33.9
	s-44.3-57-31.6-69.7C218.4,193.1,262.7,224.7,275.3,237.4z"/>
<path d="M288,153.2c17.9,0,35.8,0,69,21c4.1,2.6,4.1,9.3,0,11.9c-33.2,21-51,21-68.9,21c-17.9,0-71.6-9-71.6-26.9
	S270.1,153.2,288,153.2z"/>
<path d="M237.4,84.7C250.1,72,262.7,59.3,301,50.7c4.7-1.1,9.5,3.7,8.4,8.4c-8.6,38.3-21.3,50.9-33.9,63.6
	s-57,44.3-69.7,31.6C193.1,141.6,224.7,97.3,237.4,84.7z"/>
</g>
<g  class="st1">	
<path d="M113.9,90.5c-6.8-16.5-13.7-33.1-7-71.7c0.8-4.7,7.1-7.3,11-4.6c32.1,22.6,38.9,39.1,45.8,55.7
	s19.1,69.6,2.5,76.4C149.6,153.2,120.7,107,113.9,90.5z"/>
<path d="M69.9,163.5c-16.5-6.8-33.1-13.7-55.7-45.8c-2.8-3.9-0.2-10.2,4.6-11c38.7-6.7,55.2,0.2,71.7,7
	c16.5,6.8,62.7,35.7,55.8,52.3S86.5,170.3,69.9,163.5z"/>
<path d="M90.5,246.1c-16.5,6.8-33.1,13.7-71.7,7c-4.7-0.8-7.3-7.1-4.6-11c22.6-32.1,39.1-38.9,55.7-45.8
	s69.6-19.1,76.4-2.5C153.2,210.4,107,239.3,90.5,246.1z"/>
<path d="M163.5,290.1c-6.8,16.5-13.7,33.1-45.8,55.7c-3.9,2.8-10.2,0.2-11-4.6c-6.7-38.7,0.2-55.2,7-71.7
	c6.8-16.5,35.7-62.7,52.3-55.8S170.3,273.5,163.5,290.1z"/>
<path d="M246.1,269.5c6.8,16.5,13.7,33.1,7,71.7c-0.8,4.7-7.1,7.3-11,4.6c-32.1-22.6-38.9-39.1-45.8-55.7
	c-6.8-16.5-19.1-69.6-2.5-76.4C210.4,206.8,239.3,253,246.1,269.5z"/>
<path d="M290.1,196.5c16.5,6.8,33.1,13.7,55.7,45.8c2.8,3.9,0.2,10.2-4.6,11c-38.7,6.7-55.2-0.2-71.7-7
	s-62.7-35.7-55.8-52.3S273.5,189.7,290.1,196.5z"/>
<path d="M269.5,113.9c16.5-6.8,33.1-13.7,71.7-7c4.7,0.8,7.3,7.1,4.6,11c-22.6,32.1-39.1,38.9-55.7,45.8
	c-16.5,6.8-69.6,19.1-76.4,2.5C206.8,149.6,253,120.7,269.5,113.9z"/>
<path d="M196.5,69.9c6.8-16.5,13.7-33.1,45.8-55.7c3.9-2.8,10.2-0.2,11,4.6c6.7,38.7-0.2,55.2-7,71.7
	s-35.7,62.7-52.3,55.8S189.7,86.5,196.5,69.9z"/>
</g>
<g  class="st2">
<circle cx="180" cy="180" r="70"/>
</g>
</svg>
